<?xml version="1.0" encoding="UTF-8" standalone="no"?>
<!DOCTYPE svg PUBLIC "-//W3C//DTD SVG 1.1//EN" "http://www.w3.org/Graphics/SVG/1.1/DTD/svg11.dtd">
<svg width="100%" height="100%" viewBox="0 0 430 682" version="1.1" xmlns="http://www.w3.org/2000/svg" xmlns:xlink="http://www.w3.org/1999/xlink" xml:space="preserve" xmlns:serif="http://www.serif.com/" style="fill-rule:evenodd;clip-rule:evenodd;stroke-linecap:round;stroke-linejoin:round;stroke-miterlimit:1.5;">
    <g transform="matrix(1,0,0,1,-5578.95558,-3983.999965)">
        <g transform="matrix(1.99962,0,0,2.761616,-7670.5814,-6348.864646)">
            <g transform="matrix(0.500095,0,0,0.362107,3836.020259,2298.967081)">
                <path d="M5594.675,4331C5586.298,4353.468 5579.971,4379.97 5579,4414C5576.86,4489.017 5652.715,4652.263 5657,4650C5738.097,4669.131 5828.947,4670.406 5930,4653C5942.105,4660.905 6012.025,4464.273 6008,4402C6005.948,4370.243 6000.893,4348.629 5994.291,4331L5594.675,4331Z" style="fill:rgb(45,64,134);"/>
            </g>
            <g transform="matrix(0.500095,0,0,0.362107,3836.020259,2298.967081)">
                <path d="M5994.291,4331C5980.855,4295.125 5961.008,4275.754 5947,4221C5929.851,4153.967 5946.964,4122.372 5918,4052C5898.834,4005.435 5829.633,3984.032 5793.561,3984C5764.545,3983.975 5694.774,3997.722 5666,4057C5641.414,4107.65 5645.857,4199.946 5643,4217C5636.225,4257.438 5611.377,4286.202 5594.675,4331L5994.291,4331Z" style="fill:rgb(41,88,46);"/>
            </g>
            <g transform="matrix(0.500095,0,0,0.362107,3836.020259,2298.967081)">
                <path d="M5983,4371C6004.388,4377.231 6008.54,4411.612 5982,4425.278" style="fill:rgb(115,128,174);"/>
            </g>
            <g transform="matrix(0.500095,0,0,0.362107,3836.020259,2298.967081)">
                <path d="M5969,4474C5994.064,4471.621 6002.914,4440.256 5982,4425.278" style="fill:rgb(115,128,174);"/>
            </g>
            <g transform="matrix(0.500095,0,0,0.362107,3836.020259,2298.967081)">
                <path d="M5947,4512.528C5970.872,4523.051 5983.729,4497.488 5969,4474" style="fill:rgb(115,128,174);"/>
            </g>
            <g transform="matrix(0.500095,0,0,0.362107,3836.020259,2298.967081)">
                <path d="M5912,4549C5930.678,4564.107 5957.602,4546.947 5947,4512.528" style="fill:rgb(115,128,174);"/>
            </g>
            <g transform="matrix(-0.500095,0,0,0.362107,9630.368396,2301.206115)">
                <path d="M5983,4371C6004.388,4377.231 6008.54,4411.612 5982,4425.278" style="fill:rgb(115,128,174);"/>
            </g>
            <g transform="matrix(0.500095,0,0,0.362107,3836.020259,2298.967081)">
                <path d="M5868,4574C5886.106,4593.275 5918.246,4585.679 5912,4548" style="fill:rgb(115,128,174);"/>
            </g>
            <g transform="matrix(0.500095,0,0,0.362107,3836.020259,2298.967081)">
                <path d="M5829,4584.226C5840.053,4605.454 5864.581,4598.288 5868,4574" style="fill:rgb(115,128,174);"/>
            </g>
            <g transform="matrix(0.500095,0,0,0.362107,3836.020259,2298.967081)">
                <path d="M5777,4589C5797.622,4610.257 5814.888,4608.595 5829,4585.397" style="fill:rgb(115,128,174);"/>
            </g>
            <g transform="matrix(0.500095,0,0,0.362107,3836.020259,2298.967081)">
                <path d="M5726,4577C5737.816,4600.541 5754.861,4604.374 5777,4589" style="fill:rgb(115,128,174);"/>
            </g>
            <g transform="matrix(0.500095,0,0,0.362107,3836.020259,2298.967081)">
                <path d="M5682,4554.515C5688.61,4580.539 5702.983,4588.71 5726,4577" style="fill:rgb(115,128,174);"/>
            </g>
            <g transform="matrix(0.500095,0,0,0.362107,3836.020259,2298.967081)">
                <path d="M5649,4525C5641.847,4549.6 5654.534,4558.066 5682,4554.515" style="fill:rgb(115,128,174);"/>
            </g>
            <g transform="matrix(0.500095,0,0,0.362107,3836.020259,2298.967081)">
                <path d="M5622,4483C5615.158,4507.245 5622.325,4522.617 5650,4525" style="fill:rgb(115,128,174);"/>
            </g>
            <g transform="matrix(0.500095,0,0,0.362107,3836.020259,2298.967081)">
                <path d="M5623,4483C5596.916,4467.722 5589.877,4450.527 5606,4431" style="fill:rgb(115,128,174);"/>
            </g>
            <g transform="matrix(0.500095,0,0,0.362107,3836.020259,2298.967081)">
                <path d="M5604.492,4377.183C5591.36,4360.051 5593.779,4334.785 5619.581,4324" style="fill:rgb(115,128,174);"/>
            </g>
            <g transform="matrix(0.500095,0,0,0.362107,3836.020259,2298.967081)">
                <path d="M5983,4371C6000.669,4349.644 5996.42,4332.692 5966,4321" style="fill:rgb(115,128,174);"/>
            </g>
            <g transform="matrix(0.909697,0,0,0.65869,1777.952652,1034.53005)">
                <path d="M5546.823,4305.37C5550.183,4315.643 5552,4326.611 5552,4338C5552,4395.951 5504.951,4443 5447,4443C5389.049,4443 5342,4395.951 5342,4338C5342,4326.612 5343.817,4315.645 5347.176,4305.373C5392.617,4310.687 5427.249,4298.551 5447.135,4262.61C5467.947,4299.732 5503.975,4309.75 5546.823,4305.37Z" style="fill:rgb(122,25,38);"/>
            </g>
            <g transform="matrix(0.840636,0,0,0.608684,2154.126576,1247.847752)">
                <path d="M5546.823,4305.37C5550.183,4315.643 5552,4326.611 5552,4338C5552,4395.951 5504.951,4443 5447,4443C5389.049,4443 5342,4395.951 5342,4338C5342,4326.612 5343.817,4315.645 5347.176,4305.373C5392.617,4310.687 5427.249,4294.982 5447.135,4259.04C5467.947,4296.163 5503.975,4309.75 5546.823,4305.37Z" style="fill:none;stroke:rgb(177,51,44);stroke-width:2.48px;"/>
            </g>
            <g transform="matrix(0.500095,0,0,0.362107,3836.020259,2298.967081)">
                <path d="M5700,4405C5700,4405 5690.569,4390.587 5694,4384C5702.543,4367.598 5699.667,4359.833 5696,4356C5693.311,4353.188 5687.333,4352.333 5683,4353C5678.667,4353.667 5670.69,4353.996 5669,4363C5663.879,4390.276 5700,4405 5700,4405Z" style="fill:rgb(89,115,92);"/>
            </g>
            <g transform="matrix(-0.417474,-0.199365,-0.275337,0.302283,10356.623125,3731.005125)">
                <path d="M5700,4405C5700,4405 5690.569,4390.587 5694,4384C5702.543,4367.598 5699.667,4359.833 5696,4356C5693.311,4353.188 5687.333,4352.333 5683,4353C5678.667,4353.667 5670.69,4353.996 5669,4363C5663.879,4390.276 5700,4405 5700,4405Z" style="fill:rgb(89,115,92);"/>
            </g>
            <g transform="matrix(-0.734897,0.49031,0.677153,0.532121,7931.865631,-1224.391576)">
                <path d="M5700,4405C5700,4405 5690.569,4390.587 5694,4384C5702.543,4367.598 5699.667,4359.833 5696,4356C5693.311,4353.188 5687.333,4352.333 5683,4353C5678.667,4353.667 5670.69,4353.996 5669,4363C5663.879,4390.276 5700,4405 5700,4405Z" style="fill:rgb(89,115,92);"/>
            </g>
            <g transform="matrix(0.512572,-0.451111,0.623016,0.371141,1070.374052,4874.72831)">
                <path d="M5700,4405C5700,4405 5690.569,4390.587 5694,4384C5702.543,4367.598 5699.667,4359.833 5696,4356C5693.311,4353.188 5687.333,4352.333 5683,4353C5678.667,4353.667 5670.69,4353.996 5669,4363C5663.879,4390.276 5700,4405 5700,4405Z" style="fill:rgb(89,115,92);"/>
            </g>
            <g transform="matrix(0.256998,0.553732,-0.764743,0.186086,8638.976948,-79.884086)">
                <path d="M5700,4405C5700,4405 5690.569,4390.587 5694,4384C5702.543,4367.598 5699.667,4359.833 5696,4356C5693.311,4353.188 5687.333,4352.333 5683,4353C5678.667,4353.667 5670.69,4353.996 5669,4363C5663.879,4390.276 5700,4405 5700,4405Z" style="fill:rgb(89,115,92);"/>
            </g>
            <g transform="matrix(-0.418484,0.198252,0.2738,0.303014,7912.239701,1415.506282)">
                <path d="M5700,4405C5700,4405 5690.569,4390.587 5694,4384C5702.543,4367.598 5699.667,4359.833 5696,4356C5693.311,4353.188 5687.333,4352.333 5683,4353C5678.667,4353.667 5670.69,4353.996 5669,4363C5663.879,4390.276 5700,4405 5700,4405Z" style="fill:rgb(133,75,162);"/>
            </g>
            <g transform="matrix(-0.705945,-0.107438,-0.14838,0.511158,11410.343293,2288.982328)">
                <path d="M5700,4405C5700,4405 5690.569,4390.587 5694,4384C5702.543,4367.598 5699.667,4359.833 5696,4356C5693.311,4353.188 5687.333,4352.333 5683,4353C5678.667,4353.667 5670.69,4353.996 5669,4363C5663.879,4390.276 5700,4405 5700,4405Z" style="fill:rgb(133,75,162);"/>
            </g>
            <g transform="matrix(-0.705823,-0.107859,-0.148961,0.511069,11456.307605,2267.785899)">
                <path d="M5700,4405C5700,4405 5690.569,4390.587 5694,4384C5702.543,4367.598 5699.667,4359.833 5696,4356C5693.311,4353.188 5687.333,4352.333 5683,4353C5678.667,4353.667 5670.69,4353.996 5669,4363C5663.879,4390.276 5700,4405 5700,4405Z" style="fill:rgb(133,75,162);"/>
            </g>
            <g transform="matrix(0.068156,0.450195,0.621751,-0.04935,3568.681947,1560.551223)">
                <path d="M5700,4405C5700,4405 5690.569,4390.587 5694,4384C5702.543,4367.598 5699.667,4359.833 5696,4356C5693.311,4353.188 5687.333,4352.333 5683,4353C5678.667,4353.667 5670.69,4353.996 5669,4363C5663.879,4390.276 5700,4405 5700,4405Z" style="fill:rgb(133,75,162);"/>
            </g>
            <g transform="matrix(0.5251,0,0,0.380212,3662.912336,2238.640088)">
                <circle cx="5713" cy="4342" r="10" style="fill:rgb(90,111,186);"/>
            </g>
            <g transform="matrix(0.375071,0,0,0.27158,4550.531149,2694.025604)">
                <circle cx="5713" cy="4342" r="10" style="fill:rgb(90,111,186);"/>
            </g>
            <g transform="matrix(0.375071,0,0,0.27158,4604.041326,2687.507681)">
                <circle cx="5713" cy="4342" r="10" style="fill:rgb(90,111,186);"/>
            </g>
            <g transform="matrix(0.375071,0,0,0.27158,4637.547698,2698.732992)">
                <circle cx="5713" cy="4342" r="10" style="fill:rgb(90,111,186);"/>
            </g>
            <g transform="matrix(0.575109,0,0,0.416423,3508.733013,2102.234455)">
                <circle cx="5713" cy="4342" r="10" style="fill:rgb(90,111,186);"/>
            </g>
            <g transform="matrix(0.575109,0,0,0.416423,3464.474596,2131.202999)">
                <circle cx="5713" cy="4342" r="10" style="fill:rgb(90,111,186);"/>
            </g>
            <g transform="matrix(0.5251,0,0,0.380212,3685.166568,2272.134967)">
                <circle cx="5713" cy="4342" r="10" style="fill:rgb(90,111,186);"/>
            </g>
            <g transform="matrix(0.425081,0,0,0.307791,4274.328619,2564.5)">
                <circle cx="5713" cy="4342" r="10" style="fill:rgb(90,111,186);"/>
            </g>
            <g transform="matrix(0.375071,0,0,0.27158,4561.033146,2735.667886)">
                <circle cx="5713" cy="4342" r="10" style="fill:rgb(90,111,186);"/>
            </g>
            <g transform="matrix(0.375071,0,0,0.27158,4631.546557,2754.135333)">
                <circle cx="5713" cy="4342" r="10" style="fill:rgb(90,111,186);"/>
            </g>
            <g transform="matrix(0.375071,0,0,0.27158,4578.536475,2745.082663)">
                <circle cx="5713" cy="4342" r="10" style="fill:rgb(90,111,186);"/>
            </g>
            <g transform="matrix(0.325062,0,0,0.235369,4855.739195,2882.393563)">
                <circle cx="5713" cy="4342" r="10" style="fill:rgb(90,111,186);"/>
            </g>
            <g transform="matrix(0.325062,0,0,0.235369,4868.741668,2908.827359)">
                <circle cx="5713" cy="4342" r="10" style="fill:rgb(90,111,186);"/>
            </g>
            <g transform="matrix(0.300057,0,0,0.217264,5018.345121,2990.518654)">
                <circle cx="5713" cy="4342" r="10" style="fill:rgb(90,111,186);"/>
            </g>
            <g transform="matrix(0.275052,0,0,0.199159,5191.453044,3058.087783)">
                <circle cx="5713" cy="4342" r="10" style="fill:rgb(90,111,186);"/>
            </g>
            <g transform="matrix(0.275052,0,0,0.199159,5161.947432,3058.087783)">
                <circle cx="5713" cy="4342" r="10" style="fill:rgb(90,111,186);"/>
            </g>
            <g transform="matrix(0.225043,0,0,0.162948,5482.658427,3210.969276)">
                <circle cx="5713" cy="4342" r="10" style="fill:rgb(90,111,186);"/>
            </g>
            <g transform="matrix(0.225043,0,0,0.162948,5449.65215,3210.245062)">
                <circle cx="5713" cy="4342" r="10" style="fill:rgb(90,111,186);"/>
            </g>
            <g transform="matrix(0.200038,0,0,0.144843,5627.260928,3283.970007)">
                <circle cx="5713" cy="4342" r="10" style="fill:rgb(90,111,186);"/>
            </g>
            <g transform="matrix(0.200038,0,0,0.144843,5591.25408,3283.245794)">
                <circle cx="5713" cy="4342" r="10" style="fill:rgb(90,111,186);"/>
            </g>
            <g transform="matrix(0.275052,0,0,0.199159,5169.448859,3033.464521)">
                <circle cx="5713" cy="4342" r="10" style="fill:rgb(90,111,186);"/>
            </g>
            <g transform="matrix(0.275052,0,0,0.199159,5206.455897,3033.102414)">
                <circle cx="5713" cy="4342" r="10" style="fill:rgb(90,111,186);"/>
            </g>
            <g transform="matrix(0.225043,0,0,0.162948,5493.910567,3185.440746)">
                <circle cx="5713" cy="4342" r="10" style="fill:rgb(90,111,186);"/>
            </g>
            <g transform="matrix(0.187536,0,0,0.13579,5706.313463,3297.838698)">
                <circle cx="5713" cy="4342" r="10" style="fill:rgb(90,111,186);"/>
            </g>
            <g transform="matrix(0.162531,0,0,0.117685,5798.280954,3363.597293)">
                <circle cx="5713" cy="4342" r="10" style="fill:rgb(90,111,186);"/>
            </g>
            <g transform="matrix(0.162531,0,0,0.117685,5758.273345,3375.546818)">
                <circle cx="5713" cy="4342" r="10" style="fill:rgb(90,111,186);"/>
            </g>
            <g transform="matrix(0.162531,0,0,0.117685,5758.273345,3399.807974)">
                <circle cx="5713" cy="4342" r="10" style="fill:rgb(90,111,186);"/>
            </g>
            <g transform="matrix(0.21254,0,0,0.153895,5508.325808,3204.197879)">
                <circle cx="5713" cy="4342" r="10" style="fill:rgb(90,111,186);"/>
            </g>
            <g transform="matrix(0.21254,0,0,0.153895,5474.319341,3222.484272)">
                <circle cx="5713" cy="4342" r="10" style="fill:rgb(90,111,186);"/>
            </g>
            <g transform="matrix(0.21254,0,0,0.153895,5478.320102,3244.21068)">
                <circle cx="5713" cy="4342" r="10" style="fill:rgb(90,111,186);"/>
            </g>
            <g transform="matrix(0.21254,0,0,0.153895,5514.827045,3210.353694)">
                <circle cx="5713" cy="4342" r="10" style="fill:rgb(90,111,186);"/>
            </g>
            <g transform="matrix(0.21254,0,0,0.153895,5475.319531,3213.974762)">
                <circle cx="5713" cy="4342" r="10" style="fill:rgb(90,111,186);"/>
            </g>
            <g transform="matrix(0.21254,0,0,0.153895,5466.817914,3243.66752)">
                <circle cx="5713" cy="4342" r="10" style="fill:rgb(90,111,186);"/>
            </g>
            <g transform="matrix(0.325062,0,0,0.235369,4890.245758,2871.892465)">
                <circle cx="5713" cy="4342" r="10" style="fill:rgb(90,111,186);"/>
            </g>
            <g transform="matrix(0.375071,0,0,0.27158,4616.043609,2714.303584)">
                <circle cx="5713" cy="4342" r="10" style="fill:rgb(90,111,186);"/>
            </g>
            <g transform="matrix(0.437583,0,0,0.316843,4269.040113,2520.395391)">
                <circle cx="5713" cy="4342" r="10" style="fill:rgb(90,111,186);"/>
            </g>
            <g transform="matrix(0.462588,0,0,0.334949,4074.928196,2457.714704)">
                <circle cx="5713" cy="4342" r="10" style="fill:rgb(90,111,186);"/>
            </g>
            <g transform="matrix(0.555661,0,0,0.402341,3521.849397,2137.226042)">
                <circle cx="5699" cy="4047" r="9" style="fill:rgb(112,144,116);"/>
            </g>
            <g transform="matrix(0.555661,0,0,0.402341,3534.851869,2129.983906)">
                <circle cx="5699" cy="4047" r="9" style="fill:rgb(112,144,116);"/>
            </g>
            <g transform="matrix(0.555661,0,0,0.402341,3549.854723,2125.638625)">
                <circle cx="5699" cy="4047" r="9" style="fill:rgb(112,144,116);"/>
            </g>
            <g transform="matrix(0.555661,0,0,0.402341,3566.138475,2123.828091)">
                <circle cx="5699" cy="4047" r="9" style="fill:rgb(112,144,116);"/>
            </g>
            <g transform="matrix(0.555661,0,0,0.402341,3582.641613,2125.276518)">
                <circle cx="5699" cy="4047" r="9" style="fill:rgb(112,144,116);"/>
            </g>
            <g transform="matrix(0.555661,0,0,0.402341,3598.144562,2129.983906)">
                <circle cx="5699" cy="4047" r="9" style="fill:rgb(112,144,116);"/>
            </g>
            <g transform="matrix(0.555661,0,0,0.402341,3611.147035,2137.226042)">
                <circle cx="5699" cy="4047" r="9" style="fill:rgb(112,144,116);"/>
            </g>
            <g transform="matrix(0.555661,0,0,0.402341,3621.148937,2146.640819)">
                <circle cx="5699" cy="4047" r="9" style="fill:rgb(112,144,116);"/>
            </g>
            <g transform="matrix(0.555661,0,0,0.402341,3511.628108,2146.640819)">
                <circle cx="5699" cy="4047" r="9" style="fill:rgb(112,144,116);"/>
            </g>
            <g transform="matrix(0.555661,0,0,0.402341,3505.626966,2157.86613)">
                <circle cx="5699" cy="4047" r="9" style="fill:rgb(112,144,116);"/>
            </g>
            <g transform="matrix(0.555661,0,0,0.402341,3627.650173,2157.86613)">
                <circle cx="5699" cy="4047" r="9" style="fill:rgb(112,144,116);"/>
            </g>
            <g transform="matrix(0.555661,0,0,0.402341,3629.650554,2169.453548)">
                <circle cx="5699" cy="4047" r="9" style="fill:rgb(112,144,116);"/>
            </g>
            <g transform="matrix(0.555661,0,0,0.402341,3503.126491,2169.453548)">
                <circle cx="5699" cy="4047" r="9" style="fill:rgb(112,144,116);"/>
            </g>
            <g transform="matrix(0.555661,0,0,0.402341,3505.126871,2181.403072)">
                <circle cx="5699" cy="4047" r="9" style="fill:rgb(112,144,116);"/>
            </g>
            <g transform="matrix(0.555661,0,0,0.402341,3627.650173,2181.403072)">
                <circle cx="5699" cy="4047" r="9" style="fill:rgb(112,144,116);"/>
            </g>
            <g transform="matrix(0.555661,0,0,0.402341,3621.148937,2192.628383)">
                <circle cx="5699" cy="4047" r="9" style="fill:rgb(112,144,116);"/>
            </g>
            <g transform="matrix(0.555661,0,0,0.402341,3511.628108,2192.628383)">
                <circle cx="5699" cy="4047" r="9" style="fill:rgb(112,144,116);"/>
            </g>
            <g transform="matrix(0.555661,0,0,0.402341,3521.63001,2202.04316)">
                <circle cx="5699" cy="4047" r="9" style="fill:rgb(112,144,116);"/>
            </g>
            <g transform="matrix(0.555661,0,0,0.402341,3611.147035,2202.04316)">
                <circle cx="5699" cy="4047" r="9" style="fill:rgb(112,144,116);"/>
            </g>
            <g transform="matrix(0.555661,0,0,0.402341,3598.144562,2209.285296)">
                <circle cx="5699" cy="4047" r="9" style="fill:rgb(112,144,116);"/>
            </g>
            <g transform="matrix(0.555661,0,0,0.402341,3534.632483,2209.285296)">
                <circle cx="5699" cy="4047" r="9" style="fill:rgb(112,144,116);"/>
            </g>
            <g transform="matrix(0.555661,0,0,0.402341,3517.629249,2218.337966)">
                <circle cx="5699" cy="4047" r="9" style="fill:rgb(112,144,116);"/>
            </g>
            <g transform="matrix(0.555661,0,0,0.402341,3616.147986,2218.337966)">
                <circle cx="5699" cy="4047" r="9" style="fill:rgb(112,144,116);"/>
            </g>
            <g transform="matrix(0.555661,0,0,0.402341,3633.651315,2221.959034)">
                <circle cx="5699" cy="4047" r="9" style="fill:rgb(112,144,116);"/>
            </g>
            <g transform="matrix(0.555661,0,0,0.402341,3499.625825,2221.959034)">
                <circle cx="5699" cy="4047" r="9" style="fill:rgb(112,144,116);"/>
            </g>
            <g transform="matrix(0.500095,0,0,0.362107,3836.020259,2299.329188)">
                <path d="M5974.582,4338.784C5981.624,4338.064 5988.767,4337.13 5996,4336L5985,4310C5977.641,4310.927 5970.462,4311.578 5963.465,4311.95C5967.822,4320.542 5971.548,4329.507 5974.582,4338.784Z" style="fill:rgb(196,162,212);"/>
            </g>
            <g transform="matrix(0.500095,0,0,0.362107,3836.020259,2299.329188)">
                <path d="M5622.83,4311.369C5616.103,4311.14 5609.161,4310.685 5602,4310L5592,4336C5598.586,4337.114 5605.059,4338.045 5611.416,4338.788C5614.519,4329.301 5618.346,4320.139 5622.83,4311.369Z" style="fill:rgb(196,162,212);"/>
            </g>
            <g transform="matrix(0.500095,0,0,0.362107,3836.020259,2299.329188)">
                <path d="M5611.416,4338.788C5614.519,4329.301 5618.346,4320.139 5622.83,4311.369C5695.343,4313.844 5742.867,4290.114 5770,4245C5785.617,4247.563 5800.544,4247.257 5815,4245C5847.132,4293.932 5897.125,4315.476 5963.465,4311.95C5967.822,4320.542 5971.548,4329.507 5974.582,4338.784C5896.64,4346.75 5831.103,4328.528 5793.246,4261C5757.072,4326.38 5694.075,4348.456 5611.416,4338.788Z" style="fill:rgb(112,79,129);"/>
            </g>
            <g transform="matrix(0.900171,0,0,0.651792,1601.595302,1044.556693)">
                <circle cx="5605" cy="4329" r="5" style="fill:rgb(54,31,67);"/>
            </g>
            <g transform="matrix(0.900171,0,0,0.651792,1773.62802,1044.556693)">
                <circle cx="5605" cy="4329" r="5" style="fill:rgb(54,31,67);"/>
            </g>
            <g transform="matrix(0.900171,0,0,0.651792,1756.405399,1044.556693)">
                <circle cx="5605" cy="4329" r="5" style="fill:rgb(54,31,67);"/>
            </g>
            <g transform="matrix(0.900171,0,0,0.651792,1618.379149,1044.556693)">
                <circle cx="5605" cy="4329" r="5" style="fill:rgb(54,31,67);"/>
            </g>
            <g transform="matrix(0.900171,0,0,0.651792,1636.382573,1042.746159)">
                <circle cx="5605" cy="4329" r="5" style="fill:rgb(54,31,67);"/>
            </g>
            <g transform="matrix(0.900171,0,0,0.651792,1738.90207,1042.746159)">
                <circle cx="5605" cy="4329" r="5" style="fill:rgb(54,31,67);"/>
            </g>
            <g transform="matrix(0.900171,0,0,0.651792,1724.399312,1039.125091)">
                <circle cx="5605" cy="4329" r="5" style="fill:rgb(54,31,67);"/>
            </g>
            <g transform="matrix(0.900171,0,0,0.651792,1650.885331,1039.125091)">
                <circle cx="5605" cy="4329" r="5" style="fill:rgb(54,31,67);"/>
            </g>
            <g transform="matrix(0.900171,0,0,0.651792,1710.396649,1032.607169)">
                <circle cx="5605" cy="4329" r="5" style="fill:rgb(54,31,67);"/>
            </g>
            <g transform="matrix(0.900171,0,0,0.651792,1664.387899,1032.607169)">
                <circle cx="5605" cy="4329" r="5" style="fill:rgb(54,31,67);"/>
            </g>
            <g transform="matrix(0.900171,0,0,0.651792,1676.390181,1023.916606)">
                <circle cx="5605" cy="4329" r="5" style="fill:rgb(54,31,67);"/>
            </g>
            <g transform="matrix(0.900171,0,0,0.651792,1699.394557,1023.916606)">
                <circle cx="5605" cy="4329" r="5" style="fill:rgb(54,31,67);"/>
            </g>
            <g transform="matrix(0.556653,0,0,0.403059,3502.504448,2133.816203)">
                <circle cx="5804" cy="4130" r="84" style="fill:rgb(243,249,195);"/>
            </g>
            <g transform="matrix(0.500095,0,0,0.362107,3836.020259,2298.967081)">
                <path d="M5814,4160C5835.208,4174.066 5851.446,4172.581 5865,4148.25" style="fill:white;"/>
                <path d="M5813.464,4159.645C5813.766,4159.675 5814.054,4159.434 5814.355,4159.464C5814.659,4159.495 5824.369,4166.74 5834.531,4167.83C5848.296,4169.307 5856.856,4159.525 5863.322,4147.312C5863.68,4146.637 5864.37,4146.441 5864.483,4146.408C5864.5,4146.404 5865.938,4146.569 5865.944,4146.576C5866.247,4146.957 5866.713,4147.257 5866.846,4147.725C5867.15,4148.791 5866.91,4148.805 5866.339,4149.756C5850.641,4175.937 5832.856,4173.378 5813.646,4160.537C5813.237,4160.263 5813.563,4160.128 5813.464,4159.645Z" style="fill:rgb(0,11,19);"/>
            </g>
            <g transform="matrix(0.500095,0,0,0.362107,3836.020259,2298.967081)">
                <path d="M5866,4148.25C5862.486,4148.282 5858.837,4147.191 5854.215,4144.839C5848.071,4141.713 5844.382,4140.188 5837,4141C5826.58,4142.146 5820.261,4154.032 5814,4160" style="fill:white;"/>
                <path d="M5813.622,4160.363C5813.742,4160.09 5813.662,4159.755 5813.782,4159.482C5813.821,4159.394 5814.639,4158.766 5817.637,4154.973C5823.364,4147.728 5828.484,4140.759 5837.21,4139.649C5848.771,4138.18 5852.582,4143.086 5860.395,4145.356C5863.876,4146.367 5865.917,4146.081 5866.001,4146.116C5866.502,4146.321 5867.117,4146.355 5867.501,4146.736C5867.513,4146.748 5868.138,4148.243 5868.134,4148.251C5867.93,4148.752 5867.895,4149.367 5867.514,4149.751C5866.712,4150.559 5866.596,4150.425 5865.461,4150.367C5856.382,4149.901 5851.312,4143.769 5843.607,4142.471C5843.062,4142.379 5840.376,4141.926 5836.699,4142.348C5827.292,4143.426 5820.95,4154.191 5814.665,4160.093C5814.614,4160.141 5814.579,4160.218 5814.511,4160.236C5814.074,4160.349 5814.061,4160.25 5813.622,4160.363Z" style="fill:rgb(0,11,19);"/>
            </g>
            <g transform="matrix(-0.500095,0,0,0.362107,9629.622123,2298.967081)">
                <path d="M5814,4160C5835.208,4174.066 5851.446,4172.581 5865,4148.25" style="fill:white;"/>
                <path d="M5813.464,4159.645C5813.611,4159.91 5813.499,4160.271 5813.646,4160.537C5813.718,4160.666 5816.363,4162.298 5816.603,4162.446C5839.388,4176.505 5854.282,4170.03 5866.677,4149.189C5867.073,4148.523 5866.878,4147.838 5866.846,4147.725C5866.842,4147.709 5865.935,4146.567 5865.926,4146.566C5865.446,4146.511 5864.949,4146.276 5864.483,4146.408C5863.43,4146.708 5863.539,4146.912 5863.024,4147.876C5850.685,4170.981 5835.496,4173.081 5814.85,4159.785C5814.393,4159.491 5814.404,4159.469 5814.355,4159.464C5813.892,4159.417 5813.926,4159.691 5813.464,4159.645Z" style="fill:rgb(0,11,19);"/>
            </g>
            <g transform="matrix(-0.500095,0,0,0.362107,9629.622123,2298.967081)">
                <path d="M5866,4148.25C5862.486,4148.282 5858.837,4147.191 5854.215,4144.839C5848.071,4141.713 5844.382,4140.188 5837,4141C5826.58,4142.146 5820.261,4154.032 5814,4160" style="fill:white;"/>
                <path d="M5813.622,4160.363C5813.899,4160.248 5814.235,4160.35 5814.511,4160.236C5814.711,4160.153 5816.352,4158.413 5816.506,4158.249C5822.764,4151.61 5828.366,4142.957 5837.477,4142.278C5847.195,4141.553 5850.295,4145.31 5857.2,4148.287C5859.971,4149.482 5862.749,4150.269 5865.647,4150.374C5867.495,4150.441 5867.435,4149.963 5868.134,4148.251C5868.138,4148.243 5867.513,4146.748 5867.501,4146.736C5866.632,4145.874 5866.482,4146.144 5865.259,4146.128C5857.017,4146.022 5851.856,4139.886 5842.6,4139.402C5841.513,4139.346 5837.356,4139.271 5834.051,4140.33C5824.987,4143.237 5819.533,4153.492 5813.922,4159.339C5813.876,4159.387 5813.801,4159.418 5813.782,4159.482C5813.655,4159.915 5813.748,4159.931 5813.622,4160.363Z" style="fill:rgb(0,11,19);"/>
            </g>
            <g transform="matrix(0.411369,0,0,0.297862,4333.304351,2571.058221)">
                <circle cx="5778" cy="4138" r="15.5" style="fill:rgb(56,152,38);"/>
            </g>
            <g transform="matrix(0.500095,0,0,0.362107,3836.645378,2300.868142)">
                <circle cx="5746" cy="4150" r="8" style="fill:rgb(23,61,15);"/>
            </g>
            <g transform="matrix(0.411369,0,0,0.297862,4378.687983,2571.058221)">
                <circle cx="5778" cy="4138" r="15.5" style="fill:rgb(149,88,178);"/>
            </g>
            <g transform="matrix(0.500095,0,0,0.362107,3882.029009,2300.868142)">
                <circle cx="5746" cy="4150" r="8" style="fill:rgb(57,32,70);"/>
            </g>
            <g transform="matrix(0.500095,0,0,0.362107,3836.020259,2298.967081)">
                <path d="M5778,4202L5806,4202C5804.734,4206.049 5802.111,4209.405 5798,4212C5794.514,4212.925 5791.16,4213.052 5788,4212C5785.428,4211.348 5782.077,4207.956 5778,4202Z" style="fill:rgb(203,60,51);"/>
            </g>
            <g transform="matrix(0.500095,0,0,0.362107,3836.020259,2298.967081)">
                <path d="M5792.5,4194C5792.5,4194 5786.307,4190.695 5783,4191C5777.583,4191.5 5772,4197 5772,4197C5774.739,4198.556 5776.042,4199.585 5780,4200L5805,4200C5807.955,4199.821 5810.294,4199.148 5814,4198C5814,4198 5807.583,4190.667 5802,4191C5798.685,4191.198 5792.5,4194 5792.5,4194Z" style="fill:rgb(203,60,51);"/>
            </g>
            <g transform="matrix(0.500095,0,0,0.362107,3836.020259,2298.967081)">
                <path d="M5858.673,4131.492C5858.28,4131.483 5857.901,4131.682 5857.509,4131.673C5857.398,4131.671 5849.237,4126.894 5840.022,4126.928C5833.604,4126.951 5822.678,4127.69 5806.736,4142.946C5806.699,4142.981 5806.676,4143.044 5806.625,4143.051C5806.039,4143.133 5806.037,4143.043 5805.45,4143.126C5805.52,4142.739 5805.305,4142.335 5805.376,4141.948C5805.376,4141.947 5806.27,4140.742 5807.302,4139.449C5810.483,4135.467 5822.322,4120.93 5838.014,4120.957C5844.147,4120.968 5849.292,4123.675 5850.183,4124.144C5854.153,4126.234 5857.025,4128.886 5858.426,4130.262C5858.447,4130.283 5858.484,4130.296 5858.49,4130.325C5858.607,4130.909 5858.556,4130.913 5858.673,4131.492Z"/>
            </g>
            <g transform="matrix(-0.500095,0,0,0.362107,9630.122218,2298.967081)">
                <path d="M5858.673,4131.492C5858.542,4131.121 5858.621,4130.697 5858.49,4130.325C5858.482,4130.304 5857.184,4129.062 5856.709,4128.658C5851.905,4124.576 5840.414,4116.215 5824.44,4124.503C5815.861,4128.954 5809.45,4136.515 5805.469,4141.823C5805.437,4141.865 5805.375,4141.897 5805.374,4141.95C5805.366,4142.542 5805.458,4142.534 5805.45,4143.126C5805.824,4143.008 5806.251,4143.168 5806.625,4143.051C5806.901,4142.964 5816.614,4132.541 5828.598,4128.647C5829.294,4128.421 5833.14,4127.048 5838.94,4126.931C5846.169,4126.785 5852.048,4128.884 5857.432,4131.635C5857.457,4131.648 5857.48,4131.677 5857.509,4131.673C5858.099,4131.605 5858.087,4131.56 5858.673,4131.492Z"/>
            </g>
            <g transform="matrix(0.500095,0,0,0.362107,3836.020259,2298.967081)">
                <path d="M5794.037,4047.502C5795.497,4066.355 5802.511,4080.765 5814,4092C5827.09,4104.8 5852.833,4109.625 5865,4119C5873.863,4125.829 5884.974,4144.735 5886.754,4147.821C5886.917,4145.569 5887,4143.294 5887,4141C5887,4089.575 5845.395,4047.791 5794.037,4047.502Z" style="fill:rgb(83,103,62);"/>
            </g>
            <g transform="matrix(-0.500095,0,0,0.362107,9630.359303,2298.967081)">
                <path d="M5886.284,4147.012C5886.41,4145.024 5886.474,4143.02 5886.474,4141C5886.474,4089.751 5845.153,4048.077 5794.038,4047.506C5795.498,4066.357 5802.512,4080.766 5814,4092C5827.09,4104.8 5852.833,4109.625 5865,4119C5873.278,4125.379 5883.518,4142.293 5886.284,4147.012Z" style="fill:rgb(83,103,62);"/>
            </g>
            <g transform="matrix(0.634049,0,0,0.4591,3053.299967,1902.369605)">
                <path d="M5877.553,4135.38C5877.68,4135.6 5877.746,4135.718 5877.746,4135.718C5883.472,4124.883 5885.278,4114.316 5884.078,4104.578C5879.325,4089.614 5870.491,4076.461 5858.885,4066.43C5843.849,4056.443 5823.989,4051.881 5804.394,4055.859C5804.404,4055.991 5804.414,4056.123 5804.424,4056.255C5844.931,4056.483 5877.746,4089.44 5877.746,4130C5877.746,4131.809 5877.681,4133.604 5877.553,4135.38Z" style="fill:rgb(206,203,119);"/>
            </g>
            <g transform="matrix(0.634049,0,0,0.4591,3053.299967,1902.369605)">
                <path d="M5730.404,4134.742C5730.039,4135.365 5729.839,4135.718 5729.839,4135.718C5724.512,4125.638 5722.578,4115.79 5723.3,4106.626C5728.042,4090.251 5737.637,4075.929 5750.423,4065.322C5765.234,4056.111 5784.336,4052.031 5803.191,4055.859C5803.181,4055.992 5803.171,4056.125 5803.161,4056.258C5762.845,4056.709 5730.254,4089.578 5730.254,4130C5730.254,4131.593 5730.304,4133.174 5730.404,4134.742Z" style="fill:rgb(206,203,119);"/>
            </g>
            <g transform="matrix(0.634049,0,0,0.4591,3053.299967,1902.369605)">
                <path d="M5750.423,4065.322C5764.968,4053.257 5783.643,4046 5804,4046C5824.972,4046 5844.159,4053.702 5858.885,4066.43C5843.849,4056.443 5823.989,4051.881 5804.394,4055.859C5804.404,4055.991 5804.414,4056.123 5804.424,4056.255C5804.283,4056.254 5804.141,4056.254 5804,4056.254C5803.72,4056.254 5803.44,4056.255 5803.161,4056.258C5803.171,4056.125 5803.181,4055.992 5803.191,4055.859C5784.336,4052.031 5765.234,4056.111 5750.423,4065.322Z" style="fill:rgb(206,203,119);"/>
            </g>
            <g transform="matrix(0.634049,0,0,0.4591,3053.299967,1902.369605)">
                <path d="M5884.078,4104.578C5886.625,4112.599 5888,4121.14 5888,4130C5888,4176.361 5850.361,4214 5804,4214C5757.639,4214 5720,4176.361 5720,4130C5720,4121.89 5721.152,4114.047 5723.3,4106.626C5722.578,4115.79 5724.512,4125.638 5729.839,4135.718C5729.839,4135.718 5730.039,4135.365 5730.404,4134.742C5732.852,4173.238 5764.891,4203.746 5804,4203.746C5842.892,4203.746 5874.793,4173.574 5877.553,4135.38C5877.68,4135.6 5877.746,4135.718 5877.746,4135.718C5883.472,4124.883 5885.278,4114.316 5884.078,4104.578Z" style="fill:rgb(206,203,119);"/>
            </g>
        </g>
    </g>
</svg>
